<?xml version="1.0" encoding="utf-8"?>
<!-- Generator: Adobe Illustrator 23.1.0, SVG Export Plug-In . SVG Version: 6.00 Build 0)  -->
<svg version="1.1" id="Layer_1" xmlns="http://www.w3.org/2000/svg" xmlns:xlink="http://www.w3.org/1999/xlink" x="0px" y="0px"
	 viewBox="0 0 512 512" style="enable-background:new 0 0 512 512;" xml:space="preserve">
<path d="M499.9,133c-5.9-22-23.1-39.4-45-45.3C415.2,77,256,77,256,77S96.8,77,57.1,87.7c-21.9,5.9-39.2,23.3-45,45.3
	C1.4,173,1.4,256.4,1.4,256.4s0,83.4,10.6,123.3c5.9,22,23.1,38.7,45,44.6C96.8,435,256,435,256,435s159.2,0,198.9-10.7
	c21.9-5.9,39.2-22.5,45-44.6c10.6-40,10.6-123.3,10.6-123.3S510.6,173,499.9,133z M203.9,332.1V180.7L337,256.4L203.9,332.1z"/>
</svg>
